<?xml version="1.0" encoding="utf-8"?>
<!-- Generator: Adobe Illustrator 22.1.0, SVG Export Plug-In . SVG Version: 6.00 Build 0)  -->
<svg version="1.1" id="Capa_1" xmlns="http://www.w3.org/2000/svg" xmlns:xlink="http://www.w3.org/1999/xlink" x="0px" y="0px"
	 viewBox="0 0 231.3 236.7" style="enable-background:new 0 0 231.3 236.7;" xml:space="preserve">
<g>
	<path d="M121.3,90.7c-2.9-1.7-6.2-2.5-9.8-2.5c-3.6,0-6.9,0.8-9.8,2.5c-2.9,1.7-5.2,4-6.9,7c-1.7,3-2.5,6.4-2.5,10.2
		c0,3.8,0.8,7.2,2.5,10.2c1.7,3,4,5.3,6.9,7c2.9,1.7,6.2,2.5,9.8,2.5c3.6,0,6.9-0.8,9.8-2.5c2.9-1.7,5.2-4,6.9-7
		c1.7-3,2.5-6.4,2.5-10.2c0-3.8-0.8-7.2-2.5-10.2S124.2,92.4,121.3,90.7z"/>
	<path d="M179.4,0H51.9C23.3,0,0,23.3,0,51.9v135.5c0,13.9,10,25.6,23.1,28.3v0l92.5,21v-20.4h63.8c28.5,0,51.9-23.3,51.9-51.9V51.9
		C231.3,23.3,207.9,0,179.4,0z M111.4,191.2c-46,0-83.3-37.4-83.3-83.3s37.4-83.3,83.3-83.3c32,0,59.8,18.1,73.8,44.7h-24.9
		c-11.4-14.4-29.1-23.7-48.8-23.7c-34.4,0-62.3,28-62.3,62.3s28,62.3,62.3,62.3c19.8,0,37.4-9.3,48.8-23.7h24.9
		C171.3,173.1,143.4,191.2,111.4,191.2z M145.1,107.9c0,6-1.5,11.5-4.4,16.3c-2.9,4.8-6.9,8.6-12,11.4c-5.1,2.8-10.8,4.1-17.2,4.1
		c-6.4,0-12.1-1.4-17.3-4.1c-5.1-2.8-9.1-6.5-12-11.4c-2.9-4.8-4.4-10.3-4.4-16.3c0-6,1.5-11.5,4.4-16.3c2.9-4.8,6.9-8.6,12-11.4
		c5.1-2.8,10.9-4.1,17.3-4.1c6.4,0,12.1,1.4,17.2,4.1c5.1,2.8,9.1,6.5,12,11.4C143.6,96.4,145.1,101.9,145.1,107.9z M203.2,138.7
		h-13.7v-25c0-3.7-0.8-6.5-2.5-8.4c-1.6-1.8-4-2.8-7.1-2.8c-3.5,0-6.2,1.1-8.3,3.2c-2.1,2.1-3.1,5.3-3.1,9.5v23.4h-13.7V91.4H168
		v5.5c1.8-2,4.1-3.5,6.8-4.6c2.7-1.1,5.7-1.6,8.9-1.6c5.9,0,10.6,1.8,14.2,5.3c3.6,3.5,5.4,8.7,5.4,15.6V138.7z"/>
</g>
</svg>
